<?xml version="1.0" encoding="UTF-8" standalone="no"?>
<svg
   xmlns:dc="http://purl.org/dc/elements/1.1/"
   xmlns:cc="http://creativecommons.org/ns#"
   xmlns:rdf="http://www.w3.org/1999/02/22-rdf-syntax-ns#"
   xmlns:svg="http://www.w3.org/2000/svg"
   xmlns="http://www.w3.org/2000/svg"
   id="svg8"
   version="1.1"
   viewBox="0 0 210 297"
   height="297mm"
   width="210mm">
  <defs
     id="defs2" />
  <metadata
     id="metadata5">
    <rdf:RDF>
      <cc:Work
         rdf:about="">
        <dc:format>image/svg+xml</dc:format>
        <dc:type
           rdf:resource="http://purl.org/dc/dcmitype/StillImage" />
        <dc:title></dc:title>
      </cc:Work>
    </rdf:RDF>
  </metadata>
  <g
     id="layer1">
    <path
       id="path899"
       d="m 80.132005,236.38508 c -5.90691,-2.23884 -17.74488,-5.61759 -26.30659,-7.50846 -30.33937,-6.70027 -40.68661,-20.93478 -37.88893,-52.12313 1.45014,-16.16687 0.90114,-21.23373 -3.10963,-28.68069 -4.3792402,-8.13174 -4.5748902,-11.57057 -1.93856,-34.06367 4.99766,-42.638871 16.59035,-67.418702 37.63777,-80.452301 9.38735,-5.813141 12.96642,-6.272437 49.05825,-6.295675 38.648305,-0.0203 39.039805,0.04059 53.699515,8.339165 11.44494,6.4826 16.27748,11.318902 21.47972,21.496771 13.09124,25.611761 16.15774,34.231821 12.89518,36.248111 -2.24716,1.38885 -1.77741,7.368009 1.75844,22.382379 3.99189,16.95101 4.32291,23.1315 1.91765,35.80718 -1.59881,8.42593 -3.55705,22.97381 -4.35174,32.32848 -2.32215,27.33721 -11.81158,37.94839 -40.30069,45.06504 -7.44472,1.85981 -18.36887,5.21421 -24.27578,7.45436 -13.63385,5.17058 -26.636895,5.17139 -40.274605,0.002 z m 50.472675,-10.89665 c 8.7947,-4.43617 15.39816,-10.46434 20.80853,-18.99561 6.8323,-10.77355 7.92554,-15.08967 7.92554,-31.29206 v -18.79489 l -7.67661,11.93681 c -4.22215,6.56531 -10.78076,14.78463 -14.57476,18.26517 -6.49052,5.95419 -7.26237,6.07323 -13.05816,2.01375 -8.45069,-5.91908 -39.089635,-5.90478 -47.551485,0.0203 -5.93025,4.15375 -6.58875,3.95536 -15.59524,-4.6987 -5.172,-4.96954 -11.66302,-13.26436 -14.42448,-18.43301 l -5.02079,-9.39739 -0.11873,18.25694 c -0.16947,26.07461 7.7792,40.49644 28.07355,50.93613 22.23371,11.43723 38.799295,11.48604 61.212525,0.18063 z M 79.058045,201.75932 c 1.47673,-1.47673 11.02178,-2.68494 21.211205,-2.68494 10.18955,0 19.73459,1.20821 21.21132,2.68494 1.78999,1.78999 -5.28038,2.68494 -21.21132,2.68494 -15.930825,0 -23.001195,-0.89505 -21.211205,-2.68494 z m -32.47135,8.99452 c -5.20447,-7.18444 -8.07177,-14.38521 -8.07177,-20.2706 0,-5.02039 -1.97387,-12.9448 -4.38624,-17.60991 -2.41247,-4.66511 -5.22486,-15.59453 -6.24981,-24.28756 -1.75031,-14.84449 -1.41523,-16.25384 5.51094,-23.18 4.05603,-4.05603 8.69526,-12.70055 10.30949,-19.21004 6.33008,-25.526619 8.5545,-31.972685 11.03324,-31.972685 1.41746,0 2.57717,1.208213 2.57717,2.68494 0,1.476726 1.20821,2.685046 2.68494,2.685046 1.47682,0 2.68504,-1.812425 2.68504,-4.027516 0,-5.860532 4.43302,-4.930373 9.24517,1.939981 l 4.17963,5.967285 v -7.309857 c 0,-8.676685 1.11932,-8.931195 9.67636,-2.200173 7.0248,5.52575 23.107655,9.74252 47.126185,12.35592 13.7266,1.49367 15.85462,2.61796 22.15101,11.70381 3.83115,5.528289 6.96564,12.824349 6.96564,16.213459 0,3.43142 3.69537,9.61415 8.33886,13.95188 4.58636,4.28426 7.00288,7.78966 5.36998,7.78966 -1.69359,0 -2.99425,4.90165 -3.02794,11.41114 -0.0304,6.27609 -2.4489,16.67803 -5.36988,23.11547 -2.92108,6.43734 -5.31102,15.6199 -5.31102,20.40567 0,5.41128 -3.05209,12.91466 -8.07177,19.84408 -8.47464,11.69904 -7.20736,13.62796 4.85528,7.39023 12.59632,-6.51386 16.79838,-13.57783 19.54664,-32.85992 1.44466,-10.13616 3.71019,-25.29616 5.03439,-33.6888 1.77285,-11.2361 1.36358,-19.73093 -1.55222,-32.21969 -2.17806,-9.32818 -3.67315,-19.980969 -3.32264,-23.672789 0.92549,-9.74486 -7.83238,-33.776786 -15.72838,-43.16068 -15.33373,-18.22315 -49.68408,-26.055325 -61.6766,-14.062904 -3.230395,3.230391 -4.771555,6.251025 -3.424725,6.712452 1.34673,0.46173 1.7215,3.606981 0.83315,6.990098 -1.71074,6.51203 -7.59533,6.764003 -7.71558,0.330823 -0.0406,-2.088039 -0.97116,-5.232375 -2.07018,-6.987562 -1.14722,-1.831194 -0.11162,-4.247417 2.42952,-5.66965 6.76715,-3.787107 0.37649,-6.329367 -16.28601,-6.47915 -33.00605,-0.29632 -52.52326,27.515611 -57.73859,82.277612 -1.88204,19.76259 -1.57648,25.51423 1.62154,30.52153 2.85106,4.46428 3.7525,12.62971 3.26053,29.53474 -0.43535,14.97795 0.53682,25.58467 2.71,29.54957 3.90483,7.12405 18.29399,16.61257 25.21518,16.62738 3.95627,0.008 3.4159,-1.7841 -3.35623,-11.13279 z m 34.88778,-32.30422 c 0,-2.51111 1.19441,-5.30382 2.65419,-6.20597 1.46719,-0.90723 2.00178,0.0609 1.19533,2.16141 -1.8106,4.71828 11.32529,7.8067 23.147435,5.44223 5.60784,-1.12155 7.74064,-2.84284 6.7432,-5.44223 -0.80677,-2.10154 -0.27197,-3.06823 1.19532,-2.16141 1.45978,0.90215 2.65419,3.55025 2.65419,5.88458 0,2.33433 2.08987,5.77245 4.6442,7.64018 6.67237,4.87902 16.49912,-2.84802 26.13347,-20.54956 5.83313,-10.71734 7.9851,-18.84461 8.94327,-33.77567 1.15585,-18.01066 0.65961,-20.53171 -5.90935,-30.01048 -6.87126,-9.915239 -7.95405,-10.420919 -25.88341,-12.087209 -16.60852,-1.5436 -27.863895,-4.39659 -43.554225,-11.03983 -4.17709,-1.768583 -4.42744,-1.165694 -2.08012,5.00831 3.3957,8.9314 1.01378,8.8836 -8.43476,-0.16947 l -7.50257,-7.187884 -1.77406,8.870004 -1.77396,8.87 -4.73766,-6.28076 -4.73756,-6.28075 -1.78026,10.6399 c -0.97927,5.85191 -3.4986,15.990099 -5.59881,22.529319 -2.10012,6.53913 -3.8067,16.20503 -3.79218,21.47973 0.0304,12.5059 11.20889,36.26759 21.63721,46.0091 7.02633,6.56358 9.00487,7.22086 13.42592,4.45991 2.85188,-1.78106 5.18519,-5.29275 5.18519,-7.80386 z m -13.4249,-43.81461 c -2.73751,-3.29859 -2.55403,-4.02752 1.01378,-4.02752 6.14822,0 5.43208,-7.35156 -0.9123,-9.36522 -2.89764,-0.9194 -7.65723,-0.39374 -10.57689,1.16884 -3.30569,1.76909 -5.90478,1.87605 -6.88902,0.28313 -1.68629,-2.72827 6.6272,-8.19689 12.46115,-8.19689 5.30158,0 26.36159,9.11223 26.37316,11.41114 0.006,1.10755 -1.51174,2.01376 -3.37155,2.01376 -1.85992,0 -4.8908,2.41643 -6.73519,5.36988 -4.00579,6.41431 -6.87268,6.75304 -11.36304,1.34257 z m 53.699505,0 c -2.7375,-3.29859 -2.55403,-4.02752 1.01378,-4.02752 2.39593,0 4.3562,-1.30421 4.3562,-2.89835 0,-1.82348 -2.98704,-2.24218 -8.05492,-1.12906 -12.25191,2.69093 -9.5969,-2.04247 4.36727,-7.7861 9.03815,-3.71739 14.26555,-4.44571 19.27214,-2.68494 6.53496,2.2982 8.73625,8.87843 2.2706,6.78745 -12.47039,-4.03289 -13.12706,-3.91142 -11.22646,2.07677 1.07639,3.39144 0.49725,7.54651 -1.3656,9.79052 -4.10109,4.94164 -6.44851,4.91312 -10.63291,-0.12888 z M 86.036685,111.90435 c -5.61283,-1.08664 -11.65409,-3.512 -13.42491,-5.38977 -2.59208,-2.74867 -2.07657,-2.82671 2.64496,-0.40085 3.22562,1.65757 8.89345,3.01364 12.59521,3.01364 3.70176,0 7.4772,1.20831 8.3899,2.68504 0.9123,1.47672 1.28605,2.54601 0.8301,2.37614 -0.45665,-0.16947 -5.42204,-1.19787 -11.03486,-2.28451 z m -6.57597,-13.600159 c -3.32263,-1.33557 -6.04116,-3.14271 -6.04116,-4.01574 0,-0.87272 1.269,-0.8027 2.82001,0.15526 1.55091,0.95898 8.49828,2.70006 15.43855,3.87012 11.139795,1.877979 11.517295,2.144359 3.22126,2.272829 -5.16864,0.0812 -12.11592,-0.946799 -15.43866,-2.282569 z m 30.908575,-1.81536 c 3.33989,-0.64237 8.17284,-0.61801 10.73986,0.0507 2.56713,0.67179 -0.16541,1.19745 -6.07252,1.16772 -5.90691,-0.0305 -8.00723,-0.57945 -4.66734,-1.22191 z M 38.514925,149.07359 c 0,-19.08096 -0.50333,-21.39053 -4.02751,-18.4661 -2.21509,1.8384 -4.02071,7.12132 -4.01249,11.73994 0.0102,8.80516 4.73381,28.53467 6.82367,28.53467 0.66875,0 1.21633,-9.81386 1.21633,-21.80851 z m 130.743635,-0.55611 c 1.12774,-10.92669 0.48608,-14.8447 -2.89267,-17.64837 -3.94176,-3.27139 -4.33469,-1.53051 -4.26051,18.87607 0.0913,25.1002 4.51431,24.34103 7.15318,-1.2277 z"
       style="fill:#782121;stroke-width:2.68497396" />
  </g>
</svg>
